<svg width="140" height="141" viewBox="0 0 140 141" fill="none" xmlns="http://www.w3.org/2000/svg">
<g clip-path="url(#clip0_194_2891)">
<path d="M70 140.5C108.66 140.5 140 109.16 140 70.5C140 31.8401 108.66 0.5 70 0.5C31.3401 0.5 0 31.8401 0 70.5C0 109.16 31.3401 140.5 70 140.5Z" fill="#FFEC3B"/>
<path d="M80.3246 63.1447C80.5191 62.4266 80.9819 61.8277 81.6274 61.457C82.273 61.0862 83.0248 60.9903 83.7417 61.1847C84.4598 61.3792 85.0587 61.842 85.4295 62.4875L88.258 60.8646C87.4543 59.4633 86.1528 58.4586 84.5946 58.0373C83.0365 57.616 81.4058 57.8247 80.0058 58.6284C78.6045 59.4321 77.6011 60.7336 77.1785 62.2918C76.7559 63.8499 76.9659 65.4807 77.7696 66.8807L80.5982 65.2577C80.2274 64.6121 80.1315 63.8616 80.3259 63.1434L80.3246 63.1447Z" fill="#212136"/>
<path d="M90.1514 64.616L87.7273 66.0069C88.8006 67.8774 90.7632 68.9261 92.7803 68.9261C93.7603 68.9261 94.7532 68.6785 95.6632 68.1561C97.0101 67.3835 97.9758 66.1326 98.3816 64.6328C98.7873 63.1343 98.5851 61.5671 97.8125 60.2202L95.3884 61.6111C95.789 62.3111 95.8953 63.1239 95.684 63.903C95.4727 64.6808 94.9723 65.3302 94.2723 65.7321C92.8295 66.5604 90.981 66.06 90.1527 64.616H90.1514Z" fill="#212136"/>
<path d="M96.7852 33.3093C97.9299 34.218 99.5463 34.9944 101.335 35.4961C102.621 35.8565 103.959 36.0587 105.18 36.0587C107.402 36.0587 109.239 35.3924 109.683 33.8096C110.37 31.357 107.06 29.0431 103.433 28.0256C99.8056 27.008 95.7728 27.2594 95.0845 29.7133C94.8913 30.4004 94.855 31.7822 96.7852 33.3106V33.3093ZM99.5865 29.8844C100.451 29.8844 101.536 30.0102 102.778 30.3589C105.785 31.2028 107.327 32.6831 107.347 33.1524C107.086 33.5426 104.997 34.0054 101.992 33.1602C98.9565 32.3085 97.4126 30.8061 97.4165 30.3783C97.55 30.1463 98.3382 29.8844 99.5878 29.8844H99.5865Z" fill="#212136"/>
<path d="M54.893 62.0111L54.145 65.8987C54.6195 65.9894 55.0952 66.0348 55.5671 66.0348C57.0409 66.0348 58.4798 65.5966 59.7269 64.7515C61.3732 63.6366 62.4867 61.9463 62.8626 59.9941L58.975 59.2461C58.6121 61.1335 56.7817 62.3728 54.893 62.0111Z" fill="#212136"/>
<path d="M97.2275 52.6045C98.5588 51.8397 100.266 52.3025 101.031 53.6351L103.859 52.0121C102.2 49.1213 98.4979 48.118 95.6059 49.7773C92.7138 51.4365 91.7105 55.1388 93.3698 58.0308L96.1983 56.4078C95.4335 55.0752 95.8962 53.3693 97.2275 52.6058V52.6045Z" fill="#212136"/>
<path d="M118.915 58.2452C117.747 52.2071 114.472 46.9752 109.843 43.2963L109.861 43.2717C109.541 43.0306 109.187 42.7752 108.802 42.5121C105.497 40.1502 101.585 38.5428 97.3029 37.9322C95.1121 37.6004 92.7166 37.5187 90.1395 37.8311C78.6155 39.2311 69.859 48.5411 67.2884 62.1289C64.6232 76.2106 56.909 83.965 45.5651 83.965C34.2212 83.965 24.7894 74.6459 24.7894 63.1893C24.7894 51.7326 34.1084 42.4135 45.5651 42.4135C49.1701 42.4135 52.7206 43.3508 55.8331 45.1241L57.994 41.3311C54.2257 39.1845 49.9284 38.0489 45.5664 38.0489C43.7671 38.0489 42.0119 38.2434 40.319 38.6037C39.606 37.065 39.2042 35.3552 39.2042 33.5482C39.2042 31.3561 39.7927 29.3028 40.8155 27.5308C35.4449 28.503 31.2773 33.0932 31.0557 38.7722C31.0064 40.0245 31.1542 41.2378 31.4679 42.385C26.1181 46.0224 22.2395 51.6652 20.9199 58.2245H20.9186C18.0305 70.0622 16.4244 86.0858 16.7886 93.0637H16.7912C16.9131 99.4609 21.7469 104.969 28.2764 105.747C28.7975 105.809 29.3147 105.839 29.8281 105.839C32.9794 105.839 35.9271 104.69 38.219 102.756C45.4056 97.1989 53.7707 89.9824 61.3345 82.8074L61.2918 82.7621C66.3577 78.4389 69.9186 71.7072 71.5779 62.9391C73.8166 51.1104 80.9527 43.343 90.6684 42.1634C91.6873 42.0389 92.6738 41.9909 93.6253 42.0026V42.0169C94.6208 42.0259 95.5957 42.1037 96.551 42.2347C100.535 42.8206 103.726 44.4059 105.89 45.815C111.447 49.6171 115.026 55.9326 115.026 63.1893C115.026 74.6447 105.707 83.965 94.2501 83.965C89.4071 83.965 85.224 82.5871 81.8108 79.8713C81.711 79.7767 81.6086 79.6808 81.5088 79.5861L78.504 82.753C86.2494 90.1017 95.0279 97.6319 102.589 103.412L102.601 103.396C104.758 104.943 107.387 105.841 110.175 105.841C110.687 105.841 111.206 105.81 111.727 105.749C118.256 104.97 123.089 99.4635 123.211 93.0663H123.213C123.607 85.5258 121.598 69.2611 118.913 58.2478L118.915 58.2452ZM25.3403 101.029C24.3797 100.386 23.4658 99.5206 22.7931 98.5393C23.4827 97.9456 24.079 97.4569 24.7647 96.9021C25.3208 97.6215 26.0234 98.3422 26.7338 98.8024L25.339 101.029H25.3403ZM43.6362 93.7909C41.4805 95.6615 36.9953 99.5556 34.2082 101.064C32.8964 101.774 31.4977 102.134 30.0471 102.134C29.9992 102.134 29.9512 102.134 29.9045 102.134L29.946 99.5724C30.9973 99.5841 32.0253 99.3339 32.9884 98.8128C35.5279 97.4387 39.8692 93.6691 41.9562 91.8582L42.4086 91.4654L44.0847 93.4034L43.6349 93.7935L43.6362 93.7909ZM119.151 81.0432C119.151 81.0432 119.215 81.7963 119.253 82.2409C119.306 82.8658 119.358 83.4919 119.383 83.7265L116.833 83.9832C116.808 83.7421 116.754 83.0978 116.699 82.4561C116.663 82.0219 116.6 81.2895 116.6 81.2895L119.149 81.0432H119.151ZM119.787 92.8913C119.451 96.648 117.512 99.6126 114.601 100.821L113.618 98.4537C116.605 97.2145 117.141 93.708 117.235 92.6632C117.331 91.5924 117.313 89.9785 117.182 87.8682L119.739 87.7087C119.88 89.9798 119.896 91.6754 119.786 92.8913H119.787Z" fill="#212136"/>
<path d="M40.2247 56.1954L37.6464 55.1182C36.8102 57.1171 35.081 58.0595 33.0186 57.6356L32.4573 60.3746C32.9693 60.4784 33.4723 60.5302 33.9636 60.5302C34.5767 60.5302 35.1691 60.4459 35.7343 60.293C37.0825 63.7269 39.2823 66.8535 42.1795 69.4189L44.0332 67.3267C41.3849 64.9817 39.3963 62.1195 38.2219 58.9824C39.0606 58.2721 39.7502 57.3348 40.226 56.1954H40.2247Z" fill="#212136"/>
<path d="M49.4668 59.1845C48.0694 56.7527 47.5768 53.814 47.9178 49.9368L43.9731 49.5894C43.557 54.3118 44.2116 57.9881 46.0329 61.1575L49.4655 59.1845H49.4668Z" fill="#212136"/>
</g>
<defs>
<clipPath id="clip0_194_2891">
<rect width="140" height="140" fill="white" transform="translate(0 0.5)"/>
</clipPath>
</defs>
</svg>
