<svg width="294" height="24" viewBox="0 0 294 24" fill="none" xmlns="http://www.w3.org/2000/svg">
<path d="M0 12.0753C0 5.00326 4.79707 0.736816 11.433 0.736816C14.8917 0.736816 17.7575 2.04511 19.5019 4.19552L15.1087 9.08496C14.2365 8.36744 13.1151 7.65207 11.5877 7.65207C9.06352 7.65207 7.19453 9.27186 7.19453 12.0753C7.19453 14.9411 9.15804 16.5609 11.5877 16.5609C13.0528 16.5609 14.1742 15.9379 15.0464 15.2526L19.2828 20.2989C17.5062 22.2302 14.7027 23.4762 11.433 23.4762C4.79707 23.4762 0 19.1474 0 12.0753Z" fill="#CDCDE9"/>
<path d="M21.9316 1.20312H35.9812C40.716 1.20312 43.7386 3.88201 43.7386 8.36758C43.7386 11.4203 42.368 13.5084 40.0307 14.5052L43.3949 23.0101H35.8244L33.0832 15.2528H28.5654V23.0101H21.9294V1.20312H21.9316ZM34.3314 10.4235C35.6396 10.4235 36.5441 9.95729 36.5441 8.58455C36.5441 7.24404 35.6396 6.80794 34.3314 6.80794H28.5676V10.4213H34.3314V10.4235Z" fill="#CDCDE9"/>
<path d="M45.6077 12.0753C45.6077 5.19016 50.7162 0.736816 57.3221 0.736816C63.9259 0.736816 69.0345 5.19231 69.0345 12.0753C69.0345 19.272 63.9259 23.4783 57.3221 23.4783C50.7184 23.4762 45.6077 19.272 45.6077 12.0753ZM61.653 12.0753C61.653 9.39646 59.9086 7.46517 57.2598 7.46517C54.611 7.46517 52.8666 9.39646 52.8666 12.0753C52.8666 14.7864 54.611 16.7177 57.2598 16.7177C59.9065 16.7177 61.653 14.7843 61.653 12.0753Z" fill="#CDCDE9"/>
<path d="M69.3479 1.20312H76.7938L79.1612 14.4729H79.5973L83.6575 4.54367H85.129L89.1892 14.4729H89.6253L91.9927 1.20312H99.4687L94.9831 23.0101H86.8025L84.6092 16.2667H84.1731L81.9797 23.0101H73.8313L69.3479 1.20312Z" fill="#CDCDE9"/>
<path d="M101.808 1.20312H112.494C118.786 1.20312 123.521 4.97332 123.521 12.1378C123.521 19.3022 118.786 23.0101 112.494 23.0101H101.808V1.20312ZM111.716 17.4032C115.142 17.4032 116.638 15.3473 116.638 12.1077C116.638 8.86812 115.142 6.81224 111.467 6.81224H108.942V17.4032H111.716Z" fill="#CDCDE9"/>
<path d="M135.611 12.09C135.611 5.01791 140.408 0.751465 147.044 0.751465C150.503 0.751465 153.369 2.05976 155.113 4.21017L150.72 9.10176C149.848 8.38424 148.726 7.66887 147.199 7.66887C144.675 7.66887 142.806 9.28866 142.806 12.0921C142.806 14.9579 144.769 16.5777 147.199 16.5777C148.664 16.5777 149.785 15.9547 150.658 15.2694L154.894 20.3157C153.117 22.247 150.314 23.493 147.044 23.493C140.408 23.493 135.611 19.1621 135.611 12.09Z" fill="#CDCDE9"/>
<path d="M155.888 12.09C155.888 5.20481 160.997 0.751465 167.603 0.751465C174.207 0.751465 179.315 5.20696 179.315 12.09C179.315 19.2867 174.207 23.493 167.603 23.493C160.999 23.493 155.888 19.2867 155.888 12.09ZM171.934 12.09C171.934 9.41111 170.189 7.47982 167.541 7.47982C164.892 7.47982 163.147 9.41111 163.147 12.09C163.147 14.8011 164.892 16.7324 167.541 16.7324C170.189 16.7324 171.934 14.8011 171.934 12.09Z" fill="#CDCDE9"/>
<path d="M181.653 1.21777H189.129L197.165 13.0246H197.382V1.21777H204.08V23.0248H196.604L188.6 11.2502H188.351V23.0248H181.653V1.21777Z" fill="#CDCDE9"/>
<path d="M212.843 6.82474H206.613V1.21777H226.24V6.82474H220.01V23.0248H212.845V6.82474H212.843Z" fill="#CDCDE9"/>
<path d="M228.768 1.21777H242.818C247.553 1.21777 250.575 3.89666 250.575 8.38223C250.575 11.4349 249.205 13.523 246.867 14.5198L250.232 23.0248H242.661L239.92 15.2674H235.402V23.0248H228.766V1.21777H228.768ZM241.168 10.4381C242.476 10.4381 243.381 9.97194 243.381 8.5992C243.381 7.25869 242.476 6.82259 241.168 6.82259H235.404V10.436H241.168V10.4381Z" fill="#CDCDE9"/>
<path d="M252.29 12.09C252.29 5.20481 257.398 0.751465 264.004 0.751465C270.608 0.751465 275.717 5.20696 275.717 12.09C275.717 19.2867 270.608 23.493 264.004 23.493C257.398 23.493 252.29 19.2867 252.29 12.09ZM268.333 12.09C268.333 9.41111 266.589 7.47982 263.94 7.47982C261.291 7.47982 259.547 9.41111 259.547 12.09C259.547 14.8011 261.291 16.7324 263.94 16.7324C266.589 16.7324 268.333 14.8011 268.333 12.09Z" fill="#CDCDE9"/>
<path d="M277.899 1.21777H285.063V17.4178H293.693V23.0248H277.899V1.21777Z" fill="#CDCDE9"/>
</svg>
