<svg width="674" height="76" viewBox="0 0 674 76" fill="none" xmlns="http://www.w3.org/2000/svg">
<g filter="url(#filter0_d_144_3452)">
<path d="M617.943 65.8547V66.6047H618.693H665.398H666.148V65.8547V51.6779V50.9279H665.398H637.243V46.1271H665.398H666.148V45.3771V31.2003V30.4503H665.398H637.243V25.6495H665.398H666.148V24.8995V10.7227V9.97266H665.398H618.693H617.943V10.7227V65.8547Z" stroke="#1EE2BD" stroke-width="1.5" shape-rendering="crispEdges"/>
</g>
<g filter="url(#filter1_d_144_3452)">
<path d="M568.943 65.8547V66.6047H569.693H609.624H610.374V65.8547V51.6779V50.9279H609.624H588.558V10.7227V9.97266H587.808H569.693H568.943V10.7227V65.8547Z" stroke="#F74660" stroke-width="1.5" shape-rendering="crispEdges"/>
</g>
<g filter="url(#filter2_d_144_3452)">
<path d="M502.966 65.6718L502.731 66.6047H503.693H521.729H522.317L522.458 66.0335L524.444 57.9411H540.752L542.739 66.0335L542.879 66.6047H543.467H561.503H562.465L562.23 65.6718L548.369 10.5398L548.226 9.97266H547.641H517.555H516.97L516.828 10.5398L502.966 65.6718ZM537.078 42.8944H528.04L532.242 25.6495H532.875L537.078 42.8944Z" stroke="#FFEC3B" stroke-width="1.5" shape-rendering="crispEdges"/>
</g>
<g filter="url(#filter3_d_144_3452)">
<path d="M467.051 65.8547V66.6047H467.801H485.915H486.665V65.8547V46.5278L507.668 11.1052L508.34 9.97266H507.023H486.23H485.776L485.566 10.375L476.876 26.9848H476.839L468.15 10.375L467.94 9.97266H467.486H446.693H445.376L446.048 11.1052L467.051 46.5278V65.8547Z" stroke="#6666FF" stroke-width="1.5" shape-rendering="crispEdges"/>
</g>
<g filter="url(#filter4_d_144_3452)">
<path d="M387.943 38.2097C387.943 47.494 391.244 54.9072 396.728 59.9952C402.205 65.0762 409.801 67.7859 418.307 67.7859C426.813 67.7859 434.409 65.0762 439.885 59.9952C445.369 54.9072 448.671 47.494 448.671 38.2097C448.671 29.3114 445.364 21.9424 439.889 16.8013C434.418 11.6651 426.824 8.79102 418.307 8.79102C409.789 8.79102 402.196 11.6651 396.725 16.8013C391.249 21.9424 387.943 29.3114 387.943 38.2097ZM428.505 38.2097C428.505 41.4746 427.456 44.2164 425.664 46.135C423.877 48.0488 421.305 49.1949 418.149 49.1949C414.993 49.1949 412.421 48.0488 410.635 46.135C408.843 44.2164 407.794 41.4746 407.794 38.2097C407.794 34.9863 408.842 32.2642 410.633 30.3546C412.42 28.4495 414.993 27.3032 418.149 27.3032C421.305 27.3032 423.878 28.4495 425.665 30.3546C427.457 32.2642 428.505 34.9863 428.505 38.2097Z" stroke="#1EE2BD" stroke-width="1.5" shape-rendering="crispEdges"/>
</g>
<g filter="url(#filter5_d_144_3452)">
<path d="M347.164 65.8546V49.6711H353.063L359.259 66.119L359.442 66.6046H359.961H380.36H381.509L381.046 65.5526L372.973 47.1969C378.942 43.7379 383 37.1488 383 29.8612C383 19.2349 374.342 10.0513 363.742 10.0513H328.693H327.943V10.8013V18.8348V43.3292V48.9211V65.8546V66.6046H328.693H345.154H346.414H347.164V65.8546ZM363.622 29.8612C363.622 31.1594 363.089 32.4629 362.225 33.4403C361.361 34.4171 360.215 35.0182 359.016 35.0182H347.164V24.7042H359.016C360.215 24.7042 361.361 25.3053 362.225 26.2821C363.089 27.2596 363.622 28.563 363.622 29.8612Z" stroke="#F74660" stroke-width="1.5" shape-rendering="crispEdges"/>
</g>
<g filter="url(#filter6_d_144_3452)">
<path d="M262.051 65.8547V66.6047H262.801H280.916H281.666V65.8547V46.5278L302.668 11.1052L303.34 9.97266H302.023H281.231H280.777L280.566 10.375L271.877 26.9848H271.84L263.15 10.375L262.94 9.97266H262.486H241.693H240.377L241.048 11.1052L262.051 46.5278V65.8547Z" stroke="#FFEC3B" stroke-width="1.5" shape-rendering="crispEdges"/>
</g>
<g filter="url(#filter7_d_144_3452)">
<path d="M184.943 65.8547V66.6047H185.693H221.686C227.803 66.6047 232.398 64.9533 235.469 62.0913C238.545 59.2246 240 55.2289 240 50.7328C240 47.5045 239.263 44.794 237.789 42.5616C236.594 40.7523 234.94 39.2945 232.877 38.1333C237.568 35.8822 240 31.0604 240 25.9234C240 21.4276 238.545 17.4134 235.471 14.5273C232.401 11.645 227.806 9.97266 221.686 9.97266H185.693H184.943V10.7227V65.8547ZM217.197 50.9279H203.377V44.5519H217.197C218.364 44.5519 219.328 44.8093 219.981 45.2914C220.6 45.7484 221.015 46.4607 221.015 47.5824C221.015 48.8462 220.582 49.6397 219.959 50.1366C219.309 50.6551 218.354 50.9279 217.197 50.9279ZM217.197 32.0255H203.377V25.6495H217.197C218.374 25.6495 219.331 25.8915 219.976 26.3757C220.585 26.8318 221.015 27.5764 221.015 28.8375C221.015 30.0082 220.592 30.7635 219.967 31.247C219.314 31.7527 218.354 32.0255 217.197 32.0255Z" stroke="#6666FF" stroke-width="1.5" shape-rendering="crispEdges"/>
</g>
<g filter="url(#filter8_d_144_3452)">
<path d="M121.943 65.8547V66.6047H122.693H158.686C164.803 66.6047 169.398 64.9533 172.469 62.0913C175.545 59.2246 177 55.2289 177 50.7328C177 47.5045 176.263 44.794 174.789 42.5616C173.594 40.7523 171.94 39.2945 169.877 38.1333C174.568 35.8822 177 31.0604 177 25.9234C177 21.4276 175.545 17.4134 172.471 14.5273C169.401 11.645 164.806 9.97266 158.686 9.97266H122.693H121.943V10.7227V65.8547ZM154.197 50.9279H140.377V44.5519H154.197C155.364 44.5519 156.328 44.8093 156.981 45.2914C157.6 45.7484 158.015 46.4607 158.015 47.5824C158.015 48.8462 157.582 49.6397 156.959 50.1366C156.309 50.6551 155.354 50.9279 154.197 50.9279ZM154.197 32.0255H140.377V25.6495H154.197C155.374 25.6495 156.331 25.8915 156.976 26.3757C157.585 26.8318 158.015 27.5764 158.015 28.8375C158.015 30.0082 157.592 30.7635 156.967 31.247C156.314 31.7527 155.354 32.0255 154.197 32.0255Z" stroke="#1EE2BD" stroke-width="1.5" shape-rendering="crispEdges"/>
</g>
<g filter="url(#filter9_d_144_3452)">
<path d="M53.9431 38.2097C53.9431 47.494 57.2444 54.9072 62.7285 59.9952C68.2051 65.0762 75.8008 67.7859 84.3069 67.7859C92.813 67.7859 100.409 65.0762 105.885 59.9952C111.369 54.9072 114.671 47.494 114.671 38.2097C114.671 29.3114 111.364 21.9424 105.889 16.8013C100.418 11.6651 92.8243 8.79102 84.3069 8.79102C75.7895 8.79102 68.1958 11.6651 62.7252 16.8013C57.2495 21.9424 53.9431 29.3114 53.9431 38.2097ZM94.5045 38.2097C94.5045 41.4746 93.4556 44.2164 91.6642 46.135C89.8775 48.0488 87.3053 49.1949 84.1494 49.1949C80.9934 49.1949 78.4213 48.0488 76.6345 46.135C74.8432 44.2164 73.7942 41.4746 73.7942 38.2097C73.7942 34.9863 74.8419 32.2642 76.6333 30.3546C78.4204 28.4495 80.9933 27.3032 84.1494 27.3032C87.3055 27.3032 89.8784 28.4495 91.6655 30.3546C93.4569 32.2642 94.5045 34.9863 94.5045 38.2097Z" stroke="#F74660" stroke-width="1.5" shape-rendering="crispEdges"/>
</g>
<g filter="url(#filter10_d_144_3452)">
<path d="M8.30591 65.8547V66.6047H9.05591H48.9873H49.7373V65.8547V51.6779V50.9279H48.9873H27.9207V10.7227V9.97266H27.1707H9.05591H8.30591V10.7227V65.8547Z" stroke="#FFEC3B" stroke-width="1.5" shape-rendering="crispEdges"/>
</g>
<defs>
<filter id="filter0_d_144_3452" x="610.093" y="2.12266" width="63.9046" height="72.3318" filterUnits="userSpaceOnUse" color-interpolation-filters="sRGB">
<feFlood flood-opacity="0" result="BackgroundImageFix"/>
<feColorMatrix in="SourceAlpha" type="matrix" values="0 0 0 0 0 0 0 0 0 0 0 0 0 0 0 0 0 0 127 0" result="hardAlpha"/>
<feOffset/>
<feGaussianBlur stdDeviation="3.55"/>
<feComposite in2="hardAlpha" operator="out"/>
<feColorMatrix type="matrix" values="0 0 0 0 0.117647 0 0 0 0 0.886275 0 0 0 0 0.741176 0 0 0 1 0"/>
<feBlend mode="normal" in2="BackgroundImageFix" result="effect1_dropShadow_144_3452"/>
<feBlend mode="normal" in="SourceGraphic" in2="effect1_dropShadow_144_3452" result="shape"/>
</filter>
<filter id="filter1_d_144_3452" x="561.093" y="2.12266" width="57.1314" height="72.3318" filterUnits="userSpaceOnUse" color-interpolation-filters="sRGB">
<feFlood flood-opacity="0" result="BackgroundImageFix"/>
<feColorMatrix in="SourceAlpha" type="matrix" values="0 0 0 0 0 0 0 0 0 0 0 0 0 0 0 0 0 0 127 0" result="hardAlpha"/>
<feOffset/>
<feGaussianBlur stdDeviation="3.55"/>
<feComposite in2="hardAlpha" operator="out"/>
<feColorMatrix type="matrix" values="0 0 0 0 0.968627 0 0 0 0 0.27451 0 0 0 0 0.376471 0 0 0 1 0"/>
<feBlend mode="normal" in2="BackgroundImageFix" result="effect1_dropShadow_144_3452"/>
<feBlend mode="normal" in="SourceGraphic" in2="effect1_dropShadow_144_3452" result="shape"/>
</filter>
<filter id="filter2_d_144_3452" x="494.669" y="2.12266" width="75.8575" height="72.3318" filterUnits="userSpaceOnUse" color-interpolation-filters="sRGB">
<feFlood flood-opacity="0" result="BackgroundImageFix"/>
<feColorMatrix in="SourceAlpha" type="matrix" values="0 0 0 0 0 0 0 0 0 0 0 0 0 0 0 0 0 0 127 0" result="hardAlpha"/>
<feOffset/>
<feGaussianBlur stdDeviation="3.55"/>
<feComposite in2="hardAlpha" operator="out"/>
<feColorMatrix type="matrix" values="0 0 0 0 1 0 0 0 0 0.92549 0 0 0 0 0.231373 0 0 0 1 0"/>
<feBlend mode="normal" in2="BackgroundImageFix" result="effect1_dropShadow_144_3452"/>
<feBlend mode="normal" in="SourceGraphic" in2="effect1_dropShadow_144_3452" result="shape"/>
</filter>
<filter id="filter3_d_144_3452" x="436.96" y="2.12266" width="79.7967" height="72.3318" filterUnits="userSpaceOnUse" color-interpolation-filters="sRGB">
<feFlood flood-opacity="0" result="BackgroundImageFix"/>
<feColorMatrix in="SourceAlpha" type="matrix" values="0 0 0 0 0 0 0 0 0 0 0 0 0 0 0 0 0 0 127 0" result="hardAlpha"/>
<feOffset/>
<feGaussianBlur stdDeviation="3.55"/>
<feComposite in2="hardAlpha" operator="out"/>
<feColorMatrix type="matrix" values="0 0 0 0 0.581875 0 0 0 0 0.66685 0 0 0 0 0.968125 0 0 0 1 0"/>
<feBlend mode="normal" in2="BackgroundImageFix" result="effect1_dropShadow_144_3452"/>
<feBlend mode="normal" in="SourceGraphic" in2="effect1_dropShadow_144_3452" result="shape"/>
</filter>
<filter id="filter4_d_144_3452" x="380.093" y="0.941016" width="76.4275" height="74.6946" filterUnits="userSpaceOnUse" color-interpolation-filters="sRGB">
<feFlood flood-opacity="0" result="BackgroundImageFix"/>
<feColorMatrix in="SourceAlpha" type="matrix" values="0 0 0 0 0 0 0 0 0 0 0 0 0 0 0 0 0 0 127 0" result="hardAlpha"/>
<feOffset/>
<feGaussianBlur stdDeviation="3.55"/>
<feComposite in2="hardAlpha" operator="out"/>
<feColorMatrix type="matrix" values="0 0 0 0 0.117647 0 0 0 0 0.886275 0 0 0 0 0.741176 0 0 0 1 0"/>
<feBlend mode="normal" in2="BackgroundImageFix" result="effect1_dropShadow_144_3452"/>
<feBlend mode="normal" in="SourceGraphic" in2="effect1_dropShadow_144_3452" result="shape"/>
</filter>
<filter id="filter5_d_144_3452" x="320.093" y="2.20127" width="70.7569" height="72.2532" filterUnits="userSpaceOnUse" color-interpolation-filters="sRGB">
<feFlood flood-opacity="0" result="BackgroundImageFix"/>
<feColorMatrix in="SourceAlpha" type="matrix" values="0 0 0 0 0 0 0 0 0 0 0 0 0 0 0 0 0 0 127 0" result="hardAlpha"/>
<feOffset/>
<feGaussianBlur stdDeviation="3.55"/>
<feComposite in2="hardAlpha" operator="out"/>
<feColorMatrix type="matrix" values="0 0 0 0 0.968627 0 0 0 0 0.27451 0 0 0 0 0.376471 0 0 0 1 0"/>
<feBlend mode="normal" in2="BackgroundImageFix" result="effect1_dropShadow_144_3452"/>
<feBlend mode="normal" in="SourceGraphic" in2="effect1_dropShadow_144_3452" result="shape"/>
</filter>
<filter id="filter6_d_144_3452" x="231.96" y="2.12266" width="79.7967" height="72.3318" filterUnits="userSpaceOnUse" color-interpolation-filters="sRGB">
<feFlood flood-opacity="0" result="BackgroundImageFix"/>
<feColorMatrix in="SourceAlpha" type="matrix" values="0 0 0 0 0 0 0 0 0 0 0 0 0 0 0 0 0 0 127 0" result="hardAlpha"/>
<feOffset/>
<feGaussianBlur stdDeviation="3.55"/>
<feComposite in2="hardAlpha" operator="out"/>
<feColorMatrix type="matrix" values="0 0 0 0 1 0 0 0 0 0.92549 0 0 0 0 0.231373 0 0 0 1 0"/>
<feBlend mode="normal" in2="BackgroundImageFix" result="effect1_dropShadow_144_3452"/>
<feBlend mode="normal" in="SourceGraphic" in2="effect1_dropShadow_144_3452" result="shape"/>
</filter>
<filter id="filter7_d_144_3452" x="177.093" y="2.12266" width="70.7569" height="72.3318" filterUnits="userSpaceOnUse" color-interpolation-filters="sRGB">
<feFlood flood-opacity="0" result="BackgroundImageFix"/>
<feColorMatrix in="SourceAlpha" type="matrix" values="0 0 0 0 0 0 0 0 0 0 0 0 0 0 0 0 0 0 127 0" result="hardAlpha"/>
<feOffset/>
<feGaussianBlur stdDeviation="3.55"/>
<feComposite in2="hardAlpha" operator="out"/>
<feColorMatrix type="matrix" values="0 0 0 0 0.581875 0 0 0 0 0.66685 0 0 0 0 0.968125 0 0 0 1 0"/>
<feBlend mode="normal" in2="BackgroundImageFix" result="effect1_dropShadow_144_3452"/>
<feBlend mode="normal" in="SourceGraphic" in2="effect1_dropShadow_144_3452" result="shape"/>
</filter>
<filter id="filter8_d_144_3452" x="114.093" y="2.12266" width="70.7569" height="72.3318" filterUnits="userSpaceOnUse" color-interpolation-filters="sRGB">
<feFlood flood-opacity="0" result="BackgroundImageFix"/>
<feColorMatrix in="SourceAlpha" type="matrix" values="0 0 0 0 0 0 0 0 0 0 0 0 0 0 0 0 0 0 127 0" result="hardAlpha"/>
<feOffset/>
<feGaussianBlur stdDeviation="3.55"/>
<feComposite in2="hardAlpha" operator="out"/>
<feColorMatrix type="matrix" values="0 0 0 0 0.117647 0 0 0 0 0.886275 0 0 0 0 0.741176 0 0 0 1 0"/>
<feBlend mode="normal" in2="BackgroundImageFix" result="effect1_dropShadow_144_3452"/>
<feBlend mode="normal" in="SourceGraphic" in2="effect1_dropShadow_144_3452" result="shape"/>
</filter>
<filter id="filter9_d_144_3452" x="46.0931" y="0.941016" width="76.4275" height="74.6946" filterUnits="userSpaceOnUse" color-interpolation-filters="sRGB">
<feFlood flood-opacity="0" result="BackgroundImageFix"/>
<feColorMatrix in="SourceAlpha" type="matrix" values="0 0 0 0 0 0 0 0 0 0 0 0 0 0 0 0 0 0 127 0" result="hardAlpha"/>
<feOffset/>
<feGaussianBlur stdDeviation="3.55"/>
<feComposite in2="hardAlpha" operator="out"/>
<feColorMatrix type="matrix" values="0 0 0 0 0.968627 0 0 0 0 0.27451 0 0 0 0 0.376471 0 0 0 1 0"/>
<feBlend mode="normal" in2="BackgroundImageFix" result="effect1_dropShadow_144_3452"/>
<feBlend mode="normal" in="SourceGraphic" in2="effect1_dropShadow_144_3452" result="shape"/>
</filter>
<filter id="filter10_d_144_3452" x="0.455908" y="2.12266" width="57.1314" height="72.3318" filterUnits="userSpaceOnUse" color-interpolation-filters="sRGB">
<feFlood flood-opacity="0" result="BackgroundImageFix"/>
<feColorMatrix in="SourceAlpha" type="matrix" values="0 0 0 0 0 0 0 0 0 0 0 0 0 0 0 0 0 0 127 0" result="hardAlpha"/>
<feOffset/>
<feGaussianBlur stdDeviation="3.55"/>
<feComposite in2="hardAlpha" operator="out"/>
<feColorMatrix type="matrix" values="0 0 0 0 1 0 0 0 0 0.92549 0 0 0 0 0.231373 0 0 0 1 0"/>
<feBlend mode="normal" in2="BackgroundImageFix" result="effect1_dropShadow_144_3452"/>
<feBlend mode="normal" in="SourceGraphic" in2="effect1_dropShadow_144_3452" result="shape"/>
</filter>
</defs>
</svg>
